<svg width="30" height="30" viewBox="0 0 30 30" fill="none" xmlns="http://www.w3.org/2000/svg">
<path d="M26.625 3.3752C26.2338 2.98395 25.7694 2.67359 25.2582 2.46184C24.7471 2.2501 24.1992 2.14111 23.6459 2.14111C23.0926 2.14111 22.5448 2.2501 22.0336 2.46184C21.5225 2.67359 21.058 2.98395 20.6668 3.3752L4.8236 19.2184C4.35217 19.6898 4.00931 20.2748 3.83039 20.9177L2.17289 26.8373C2.13459 26.9746 2.13346 27.1195 2.16963 27.2573C2.20579 27.3951 2.27793 27.5208 2.37867 27.6216C2.47941 27.7223 2.60512 27.7944 2.74292 27.8306C2.88072 27.8668 3.02566 27.8656 3.16289 27.8273L9.08146 26.1698C9.72425 25.99 10.3099 25.6475 10.7818 25.1756L26.625 9.33234C27.4149 8.54231 27.8586 7.47091 27.8586 6.35377C27.8586 5.23663 27.4149 4.16523 26.625 3.3752ZM21.8036 4.51091C22.2924 4.0223 22.9552 3.74785 23.6463 3.74795C24.3374 3.74805 25.0002 4.02269 25.4888 4.51145C25.9774 5.0002 26.2518 5.66304 26.2517 6.35415C26.2516 7.04525 25.977 7.70801 25.4882 8.19663L23.8382 9.84556L20.1536 6.15984L21.8036 4.51091ZM19.0179 7.29663L22.7036 10.9823L9.64503 24.0398C9.36844 24.3165 9.02528 24.5172 8.6486 24.6227L4.10467 25.8945L5.37646 21.3516C5.48214 20.975 5.68285 20.6319 5.95931 20.3552L19.0179 7.29663Z" fill="black"/>
</svg> 