<svg width="36" height="36" viewBox="0 0 36 36" fill="none" xmlns="http://www.w3.org/2000/svg">
  <mask id="mask0_1_39" style="mask-type:alpha" maskUnits="userSpaceOnUse" x="0" y="0" width="36" height="36">
    <rect x="0.5" y="0.5" width="35" height="35" fill="#D9D9D9"/>
  </mask>
  <g mask="url(#mask0_1_39)">
    <path d="M6.33333 26.75C5.52792 26.75 4.875 26.0971 4.875 25.2917C4.875 24.4863 5.52792 23.8333 6.33333 23.8333H29.6667C30.4721 23.8333 31.125 24.4863 31.125 25.2917C31.125 26.0971 30.4721 26.75 29.6667 26.75H6.33333ZM6.33333 19.4583C5.52792 19.4583 4.875 18.8054 4.875 18C4.875 17.1946 5.52792 16.5417 6.33333 16.5417H29.6667C30.4721 16.5417 31.125 17.1946 31.125 18C31.125 18.8054 30.4721 19.4583 29.6667 19.4583H6.33333ZM6.33333 12.1667C5.52792 12.1667 4.875 11.5137 4.875 10.7083C4.875 9.90292 5.52792 9.25 6.33333 9.25H29.6667C30.4721 9.25 31.125 9.90292 31.125 10.7083C31.125 11.5137 30.4721 12.1667 29.6667 12.1667H6.33333Z" fill="#1C1B1F"/>
  </g>
</svg>