<svg width="17" height="17" viewBox="0 0 17 17" fill="none" xmlns="http://www.w3.org/2000/svg">
  <g clip-path="url(#clip0_772_379)">
    <path d="M15.5 7.5H9.5V1.5C9.5 1.23478 9.39464 0.98043 9.20711 0.792893C9.01957 0.605357 8.76522 0.5 8.5 0.5C8.23478 0.5 7.98043 0.605357 7.79289 0.792893C7.60536 0.98043 7.5 1.23478 7.5 1.5V7.5H1.5C1.23478 7.5 0.98043 7.60536 0.792893 7.79289C0.605357 7.98043 0.5 8.23478 0.5 8.5C0.5 8.76522 0.605357 9.01957 0.792893 9.20711C0.98043 9.39464 1.23478 9.5 1.5 9.5H7.5V15.5C7.5 15.7652 7.60536 16.0196 7.79289 16.2071C7.98043 16.3946 8.23478 16.5 8.5 16.5C8.76522 16.5 9.01957 16.3946 9.20711 16.2071C9.39464 16.0196 9.5 15.7652 9.5 15.5V9.5H15.5C15.7652 9.5 16.0196 9.39464 16.2071 9.20711C16.3946 9.01957 16.5 8.76522 16.5 8.5C16.5 8.23478 16.3946 7.98043 16.2071 7.79289C16.0196 7.60536 15.7652 7.5 15.5 7.5Z" fill="#5E584F"/>
  </g>
  <defs>
    <clipPath id="clip0_772_379">
      <rect width="16" height="16" fill="white" transform="translate(0.5 0.5)"/>
    </clipPath>
  </defs>
</svg>