<svg width="50" height="50" viewBox="0 0 50 50" fill="none" xmlns="http://www.w3.org/2000/svg">
  <g clip-path="url(#clip0_90_209)">
    <path d="M35 48.3V49.9667H36.6667V48.3H35ZM1.66667 48.3H0V49.9667H1.66667V48.3ZM48.3333 48.3333V50H50V48.3333H48.3333ZM26.6667 11.66C26.6662 12.7539 26.4503 13.837 26.0313 14.8475C25.6123 15.858 24.9983 16.776 24.2245 17.5492C23.4507 18.3224 22.5321 18.9356 21.5213 19.3539C20.5105 19.7721 19.4272 19.9871 18.3333 19.9867V23.32C24.7767 23.32 30 18.1 30 11.66H26.6667ZM18.3333 19.9867C17.2394 19.9871 16.1561 19.7721 15.1453 19.3539C14.1345 18.9356 13.216 18.3224 12.4422 17.5492C11.6683 16.776 11.0544 15.858 10.6354 14.8475C10.2163 13.837 10.0004 12.7539 10 11.66H6.66667C6.6671 13.1917 6.96922 14.7082 7.55576 16.1231C8.1423 17.538 9.00178 18.8235 10.0851 19.9062C11.1685 20.989 12.4545 21.8477 13.8697 22.4335C15.2849 23.0192 16.8017 23.3204 18.3333 23.32V19.9867ZM10 11.66C10.0004 10.5661 10.2163 9.48298 10.6354 8.4725C11.0544 7.46203 11.6683 6.54398 12.4422 5.77078C13.216 4.99757 14.1345 4.38436 15.1453 3.96614C16.1561 3.54792 17.2394 3.3329 18.3333 3.33333V4.76507e-07C16.8017 -0.000437326 15.2849 0.30081 13.8697 0.886543C12.4545 1.47228 11.1685 2.33102 10.0851 3.41375C9.00178 4.49649 8.1423 5.782 7.55576 7.19689C6.96922 8.61178 6.6671 10.1283 6.66667 11.66H10ZM18.3333 3.33333C20.5423 3.33333 22.6609 4.21039 24.2235 5.77175C25.7861 7.33311 26.6649 9.45102 26.6667 11.66H30C29.9996 10.1283 29.6974 8.61178 29.1109 7.19689C28.5244 5.782 27.6649 4.49649 26.5815 3.41375C25.4982 2.33102 24.2122 1.47228 22.797 0.886543C21.3817 0.30081 19.865 -0.000437326 18.3333 4.76507e-07V3.33333ZM35 46.6333H1.66667V49.9667H35V46.6333ZM3.33333 48.3V41.65H0V48.3H3.33333ZM11.6667 33.3133H25V29.98H11.6667V33.3133ZM33.3333 41.6467V48.3H36.6667V41.6467H33.3333ZM25 33.3133C27.2101 33.3133 29.3298 34.1913 30.8926 35.7541C32.4554 37.3169 33.3333 39.4365 33.3333 41.6467H36.6667C36.6667 38.5525 35.4375 35.585 33.2496 33.3971C31.0617 31.2092 28.0942 29.98 25 29.98V33.3133ZM3.33333 41.65C3.33333 39.4399 4.21131 37.3169 5.77411 35.7541C7.33691 34.1913 9.45653 33.3133 11.6667 33.3133V29.98C8.57247 29.98 5.60501 31.2092 3.41709 33.3971C1.22916 35.585 0 38.5558 0 41.65H3.33333ZM46.6667 43.3333V48.3333H50V43.3333H46.6667ZM48.3333 46.6667H40V50H48.3333V46.6667ZM40 36.6667C41.7681 36.6667 43.4638 37.369 44.714 38.6193C45.9643 39.8695 46.6667 41.5652 46.6667 43.3333H50C50 40.6812 48.9464 38.1376 47.0711 36.2623C45.1957 34.3869 42.6522 33.3333 40 33.3333V36.6667ZM38.3333 26.6667C37.0073 26.6667 35.7355 26.1399 34.7978 25.2022C33.8601 24.2645 33.3333 22.9927 33.3333 21.6667H30C30 23.8768 30.878 25.9964 32.4408 27.5592C34.0036 29.122 36.1232 30 38.3333 30V26.6667ZM43.3333 21.6667C43.3333 22.9927 42.8065 24.2645 41.8689 25.2022C40.9312 26.1399 39.6594 26.6667 38.3333 26.6667V30C40.5435 30 42.6631 29.122 44.2259 27.5592C45.7887 25.9964 46.6667 23.8768 46.6667 21.6667H43.3333ZM38.3333 16.6667C39.6594 16.6667 40.9312 17.1934 41.8689 18.1311C42.8065 19.0688 43.3333 20.3406 43.3333 21.6667H46.6667C46.6667 19.4565 45.7887 17.3369 44.2259 15.7741C42.6631 14.2113 40.5435 13.3333 38.3333 13.3333V16.6667ZM38.3333 13.3333C36.1232 13.3333 34.0036 14.2113 32.4408 15.7741C30.878 17.3369 30 19.4565 30 21.6667H33.3333C33.3333 20.3406 33.8601 19.0688 34.7978 18.1311C35.7355 17.1934 37.0073 16.6667 38.3333 16.6667V13.3333Z" fill="#736969"/>
  </g>
  <defs>
    <clipPath id="clip0_90_209">
      <rect width="50" height="50" fill="white"/>
    </clipPath>
  </defs>
</svg>