<svg width="50" height="50" viewBox="0 0 50 50" fill="none" xmlns="http://www.w3.org/2000/svg">
<path d="M5.25 8.41671C5.25 7.26611 6.18274 6.33337 7.33333 6.33337H40.6667C41.8173 6.33337 42.75 7.26611 42.75 8.41671C42.75 9.5673 41.8173 10.5 40.6667 10.5H7.33333C6.18274 10.5 5.25 9.5673 5.25 8.41671ZM5.25 23C5.25 21.8494 6.18274 20.9167 7.33333 20.9167H28.1667C29.3173 20.9167 30.25 21.8494 30.25 23C30.25 24.1506 29.3173 25.0834 28.1667 25.0834H7.33333C6.18274 25.0834 5.25 24.1506 5.25 23ZM5.25 37.5834C5.25 36.4328 6.18274 35.5 7.33333 35.5H40.6667C41.8173 35.5 42.75 36.4328 42.75 37.5834C42.75 38.734 41.8173 39.6667 40.6667 39.6667H7.33333C6.18274 39.6667 5.25 38.734 5.25 37.5834Z" fill="#736969"/>
</svg> 