<svg width="50" height="50" viewBox="0 0 50 50" fill="none" xmlns="http://www.w3.org/2000/svg">
  <path d="M20.9076 1.97618C23.6029 0.85975 26.6313 0.859749 29.3266 1.97618L38.3386 5.70906C41.0339 6.8255 43.1753 8.96691 44.2918 11.6622L48.0246 20.6742C49.1411 23.3695 49.1411 26.3979 48.0246 29.0932L44.2918 38.1052C43.1753 40.8005 41.0339 42.9419 38.3386 44.0584L29.3266 47.7912C26.6313 48.9077 23.6029 48.9077 20.9076 47.7912L11.8956 44.0584C9.20031 42.9419 7.05889 40.8005 5.94246 38.1052L2.20958 29.0932C1.09315 26.3979 1.09315 23.3695 2.20958 20.6742L5.94246 11.6622C7.05889 8.96691 9.20031 6.8255 11.8956 5.70906L20.9076 1.97618Z" fill="#736969"/>
  <path d="M18.5776 9.0427C22.8945 7.25456 27.745 7.25456 32.0619 9.0427C36.3789 10.8308 39.8087 14.2606 41.5968 18.5776C43.385 22.8945 43.385 27.745 41.5968 32.0619C39.8087 36.3789 36.3789 39.8087 32.0619 41.5968C27.745 43.385 22.8945 43.385 18.5776 41.5968C14.2606 39.8087 10.8308 36.3789 9.0427 32.0619C7.25456 27.745 7.25457 22.8945 9.0427 18.5776C10.8308 14.2606 14.2606 10.8308 18.5776 9.0427Z" fill="white"/>
</svg>