<svg width="50" height="50" viewBox="0 0 50 50" fill="none" xmlns="http://www.w3.org/2000/svg">
  <path d="M8.05327 2H38.3196C41.6731 2 44.3729 4.74631 44.3729 8.15764V38.9458C44.3729 42.3571 41.6731 45.1034 38.3196 45.1034H8.05327C4.69976 45.1034 2 42.3571 2 38.9458V8.15764C2 4.74631 4.69976 2 8.05327 2Z" stroke="#736969" stroke-width="3" stroke-linecap="round" stroke-linejoin="round"/>
  <path d="M11.0798 11.2365H14.1065" stroke="#736969" stroke-width="3" stroke-linecap="round" stroke-linejoin="round"/>
  <path d="M17.1332 14.3152C16.3304 14.3152 15.5606 13.9909 14.993 13.4135C14.4254 12.8361 14.1065 12.053 14.1065 11.2364C14.1065 10.4199 14.4254 9.63675 14.993 9.05936C15.5606 8.48197 16.3304 8.15759 17.1332 8.15759C17.5306 8.15759 17.9242 8.23723 18.2914 8.39195C18.6586 8.54668 18.9923 8.77346 19.2733 9.05936C19.5544 9.34525 19.7773 9.68466 19.9294 10.0582C20.0815 10.4317 20.1598 10.8321 20.1598 11.2364C20.1598 11.6407 20.0815 12.0411 19.9294 12.4146C19.7773 12.7882 19.5544 13.1276 19.2733 13.4135C18.9923 13.6994 18.6586 13.9261 18.2914 14.0809C17.9242 14.2356 17.5306 14.3152 17.1332 14.3152Z" stroke="#736969" stroke-width="3" stroke-linecap="round" stroke-linejoin="round"/>
  <path d="M20.1598 11.2368L35.293 11.2365" stroke="#736969" stroke-width="3" stroke-linecap="round" stroke-linejoin="round"/>
  <path d="M35.293 23.5518H32.2664" stroke="#736969" stroke-width="3" stroke-linecap="round" stroke-linejoin="round"/>
  <path d="M29.2396 26.6305C30.0424 26.6305 30.8122 26.3062 31.3798 25.7288C31.9474 25.1514 32.2663 24.3683 32.2663 23.5517C32.2663 22.7352 31.9474 21.9521 31.3798 21.3747C30.8122 20.7973 30.0424 20.4729 29.2396 20.4729C28.4369 20.4729 27.6671 20.7973 27.0995 21.3747C26.5319 21.9521 26.213 22.7352 26.213 23.5517C26.213 24.3683 26.5319 25.1514 27.0995 25.7288C27.6671 26.3062 28.4369 26.6305 29.2396 26.6305Z" stroke="#736969" stroke-width="3" stroke-linecap="round" stroke-linejoin="round"/>
  <path d="M26.213 23.5521L11.0798 23.5518" stroke="#736969" stroke-width="3" stroke-linecap="round" stroke-linejoin="round"/>
  <path d="M11.0798 35.8669H14.1065" stroke="#736969" stroke-width="3" stroke-linecap="round" stroke-linejoin="round"/>
  <path d="M17.1332 38.9458C16.3304 38.9458 15.5606 38.6215 14.993 38.0441C14.4254 37.4667 14.1065 36.6836 14.1065 35.867C14.1065 35.0505 14.4254 34.2674 14.993 33.69C15.5606 33.1126 16.3304 32.7882 17.1332 32.7882C17.5306 32.7882 17.9242 32.8678 18.2914 33.0226C18.6586 33.1773 18.9923 33.4041 19.2733 33.69C19.5544 33.9759 19.7773 34.3153 19.9294 34.6888C20.0815 35.0624 20.1598 35.4627 20.1598 35.867C20.1598 36.2713 20.0815 36.6717 19.9294 37.0452C19.7773 37.4188 19.5544 37.7582 19.2733 38.0441C18.9923 38.33 18.6586 38.5568 18.2914 38.7115C17.9242 38.8662 17.5306 38.9458 17.1332 38.9458Z" stroke="#736969" stroke-width="3" stroke-linecap="round" stroke-linejoin="round"/>
  <path d="M20.1598 35.8673L35.293 35.8669" stroke="#736969" stroke-width="3" stroke-linecap="round" stroke-linejoin="round"/>
</svg>