<svg width="50" height="50" viewBox="0 0 50 50" fill="none" xmlns="http://www.w3.org/2000/svg">
  <path d="M47.9204 32.7195C46.6212 29.6937 43.4962 29.5828 39.2727 30.1875C39.3047 23.1343 40.493 16.3984 42.7508 9.03745C43.8008 6.40151 35.9774 1.61479 25.0008 1.56323C14.0243 1.61479 6.20006 6.40073 7.25006 9.03667C9.49459 16.3531 10.6751 23.1359 10.7172 30.1851C6.49928 29.5828 3.37818 29.6953 2.07896 32.7187C-0.750724 38.3414 8.19303 48.4375 25.0001 48.4375C41.8079 48.4375 50.7508 38.3414 47.9204 32.7195ZM9.75162 37.3773C9.75162 37.3773 10.8118 33.6703 10.6422 31.7101C19.8641 40.0101 30.1376 40.0101 39.3587 31.7101C39.3938 33.7101 40.2485 37.3773 40.2485 37.3773C31.1704 46.0156 18.8305 46.0156 9.75162 37.3773Z" fill="#736969"/>
</svg>