<svg width="32" height="32" viewBox="0 0 32 32" fill="none" xmlns="http://www.w3.org/2000/svg">
  <path fill-rule="evenodd" clip-rule="evenodd" d="M13.3333 4.83333C8.63891 4.83333 4.83333 8.63891 4.83333 13.3333C4.83333 18.0278 8.63891 21.8333 13.3333 21.8333C18.0278 21.8333 21.8333 18.0278 21.8333 13.3333C21.8333 8.63891 18.0278 4.83333 13.3333 4.83333ZM2 13.3333C2 7.07411 7.07411 2 13.3333 2C19.5926 2 24.6667 7.07411 24.6667 13.3333C24.6667 15.9523 23.7783 18.3639 22.2865 20.283L29.9184 27.9149C30.4716 28.4682 30.4716 29.3652 29.9184 29.9184C29.3652 30.4716 28.4682 30.4716 27.9149 29.9184L20.283 22.2865C18.3639 23.7783 15.9523 24.6667 13.3333 24.6667C7.07411 24.6667 2 19.5926 2 13.3333Z" fill="#5E584F"/>
</svg>